<?xml version="1.0" encoding="utf-8"?>
<svg width="200" height="55" viewBox="-63.961 -19.822 454.159 105.342" fill="none" xmlns="http://www.w3.org/2000/svg">
  <path d="M 66.892 49.608 L 66.892 41.954 L 61.467 41.954 L 61.467 35.294 L 73.821 35.294 L 73.821 53.663 C 72.299 54.97 70.62 55.96 68.785 56.631 C 66.95 57.302 64.986 57.638 62.891 57.638 C 57.698 57.638 53.688 55.834 50.859 52.226 C 48.03 48.619 46.616 43.494 46.616 36.852 C 46.616 30.102 48.044 24.946 50.9 21.383 C 53.755 17.82 57.877 16.039 63.266 16.039 C 64.877 16.039 66.462 16.267 68.02 16.724 C 69.577 17.18 71.036 17.838 72.397 18.697 L 72.397 27.479 C 71.287 26.047 70.011 24.968 68.57 24.243 C 67.129 23.518 65.549 23.155 63.83 23.155 C 60.823 23.155 58.576 24.288 57.09 26.553 C 55.604 28.818 54.861 32.251 54.861 36.852 C 54.861 41.31 55.577 44.703 57.009 47.03 C 58.442 49.357 60.527 50.521 63.266 50.521 C 64.09 50.521 64.806 50.445 65.415 50.293 C 66.024 50.141 66.516 49.913 66.892 49.608 Z M 98.257 37.926 C 99.044 38.087 99.729 38.459 100.311 39.04 C 100.893 39.622 101.605 40.755 102.446 42.438 L 109.697 56.859 L 100.996 56.859 L 96.162 46.734 C 96.019 46.448 95.831 46.054 95.598 45.553 C 94.183 42.527 92.518 41.014 90.603 41.014 L 88.078 41.014 L 88.078 56.859 L 80.156 56.859 L 80.156 16.764 L 91.596 16.764 C 96.753 16.764 100.454 17.677 102.701 19.503 C 104.948 21.329 106.071 24.301 106.071 28.419 C 106.071 31.176 105.4 33.37 104.057 34.999 C 102.714 36.628 100.781 37.604 98.257 37.926 Z M 88.078 23.424 L 88.078 34.354 L 91.811 34.354 C 93.978 34.354 95.531 33.929 96.471 33.078 C 97.411 32.228 97.881 30.827 97.881 28.876 C 97.881 26.924 97.415 25.527 96.484 24.686 C 95.553 23.845 93.996 23.424 91.811 23.424 L 88.078 23.424 Z M 139.182 56.859 L 114.206 56.859 L 114.206 16.764 L 139.182 16.764 L 139.182 23.746 L 122.128 23.746 L 122.128 32.394 L 137.57 32.394 L 137.57 39.376 L 122.128 39.376 L 122.128 49.877 L 139.182 49.877 L 139.182 56.859 Z M 172.295 56.859 L 147.32 56.859 L 147.32 16.764 L 172.295 16.764 L 172.295 23.746 L 155.242 23.746 L 155.242 32.394 L 170.684 32.394 L 170.684 39.376 L 155.242 39.376 L 155.242 49.877 L 172.295 49.877 L 172.295 56.859 Z M 179.114 16.764 L 187.627 16.764 L 198.799 45.902 L 198.799 16.764 L 205.781 16.764 L 205.781 56.859 L 197.322 56.859 L 186.096 27.721 L 186.096 56.859 L 179.114 56.859 L 179.114 16.764 Z M 238.515 56.859 L 213.54 56.859 L 213.54 16.764 L 238.515 16.764 L 238.515 23.746 L 221.462 23.746 L 221.462 32.394 L 236.904 32.394 L 236.904 39.376 L 221.462 39.376 L 221.462 49.877 L 238.515 49.877 L 238.515 56.859 Z M 263.814 37.926 C 264.602 38.087 265.287 38.459 265.868 39.04 C 266.45 39.622 267.162 40.755 268.003 42.438 L 275.254 56.859 L 266.553 56.859 L 261.719 46.734 C 261.576 46.448 261.388 46.054 261.155 45.553 C 259.741 42.527 258.076 41.014 256.16 41.014 L 253.636 41.014 L 253.636 56.859 L 245.713 56.859 L 245.713 16.764 L 257.154 16.764 C 262.31 16.764 266.012 17.677 268.259 19.503 C 270.506 21.329 271.629 24.301 271.629 28.419 C 271.629 31.176 270.958 33.37 269.615 34.999 C 268.272 36.628 266.339 37.604 263.814 37.926 Z M 253.636 23.424 L 253.636 34.354 L 257.369 34.354 C 259.535 34.354 261.088 33.929 262.028 33.078 C 262.968 32.228 263.438 30.827 263.438 28.876 C 263.438 26.924 262.973 25.527 262.042 24.686 C 261.111 23.845 259.553 23.424 257.369 23.424 L 253.636 23.424 Z M 291.795 24.015 L 288.062 40.423 L 295.555 40.423 L 291.795 24.015 Z M 286.961 16.764 L 296.656 16.764 L 307.478 56.859 L 299.556 56.859 L 297.085 46.949 L 286.477 46.949 L 284.06 56.859 L 276.138 56.859 L 286.961 16.764 Z" style="fill: rgb(39, 172, 141); white-space: pre;"/>
  <path class="cls-1" d="M 17.787 -10.52 L 25.147 -10.52 C 25.147 -10.52 25.147 -10.52 25.147 -10.52 L 25.147 11.558 C 25.147 11.558 25.147 11.558 25.147 11.558 L 17.787 11.558 C 13.723 11.558 10.429 8.263 10.429 4.198 L 10.429 -3.16 C 10.429 -7.225 13.723 -10.52 17.787 -10.52 Z" style="fill: none; stroke-miterlimit: 10; stroke-width: 7px;"/>
  <path d="M 17.787 -14.02 L 28.647 -14.02 L 28.647 15.058 L 17.787 15.058 C 15.04 14.905 11.881 13.65 10.109 11.877 C 8.336 10.104 7.082 6.945 6.929 4.198 L 6.929 -3.16 C 7.082 -5.907 8.336 -9.066 10.109 -10.839 C 11.881 -12.612 15.04 -13.867 17.787 -14.02 Z M 15.059 -5.89 C 14.169 -4.999 13.776 -4.478 13.929 -3.16 L 13.929 4.198 C 13.776 5.516 14.169 6.037 15.059 6.928 C 15.95 7.819 16.47 8.211 17.787 8.058 L 21.647 8.058 L 21.647 -7.02 L 17.787 -7.02 C 16.47 -7.173 15.95 -6.781 15.059 -5.89 Z" style="fill: rgb(39, 172, 141);"/>
  <line class="cls-1" x1="39.865" y1="-6.86" x2="25.147" y2="-6.86" style="fill: none; stroke-miterlimit: 10; stroke-width: 7px;"/>
  <path d="M 39.865 -3.36 L 25.147 -3.36 L 25.147 -10.36 L 39.865 -10.36 Z" style="fill: rgb(39, 172, 141);"/>
  <line class="cls-1" x1="39.865" y1="7.858" x2="25.147" y2="7.858" style="fill: none; stroke-miterlimit: 10; stroke-width: 7px;"/>
  <path d="M 39.865 11.358 L 25.147 11.358 L 25.147 4.358 L 39.865 4.358 Z" style="fill: rgb(39, 172, 141);"/>
  <path class="cls-1" d="M 36.165 35.445 C 36.165 62.347 7.044 79.161 -16.253 65.709 C -39.551 52.258 -39.551 18.631 -16.253 5.182 C -10.94 2.114 -4.914 0.5 1.22 0.5 L 10.429 0.5" style="fill: none; stroke-miterlimit: 10; stroke-width: 7px;"/>
  <path d="M 39.665 35.445 C 39.371 49.866 31.307 62.468 20.442 68.741 C 9.578 75.014 -5.367 75.697 -18.003 68.74 C -30.345 61.275 -37.226 47.99 -37.226 35.445 C -37.226 22.899 -30.345 9.615 -18.003 2.151 C -12.268 -1.092 -5.367 -2.94 1.22 -3 L 10.429 -3 L 10.429 4 L 1.22 4 C -4.461 3.94 -9.612 5.32 -14.503 8.213 C -25.458 14.198 -30.226 24.452 -30.226 35.445 C -30.226 46.438 -25.459 56.692 -14.503 62.678 C -3.842 69.173 7.422 68.175 16.942 62.679 C 26.463 57.182 32.959 47.926 32.665 35.445 Z" style="fill: rgb(39, 172, 141);"/>
  <path class="cls-1" d="M -15.309 22.576 L -5.869 22.576 C 3.132 22.576 10.429 29.873 10.429 38.874 L 10.429 48.352 C 10.429 48.352 10.429 48.352 10.429 48.352 L 0.95 48.352 C -8.051 48.352 -15.347 41.056 -15.347 32.055 L -15.347 22.576 C -15.347 22.576 -15.309 22.576 -15.309 22.576 Z" style="fill: none; stroke-miterlimit: 10; stroke-width: 7px;"/>
  <path d="M -5.869 19.076 C -0.653 19.229 4.74 21.484 8.13 24.875 C 11.521 28.265 13.776 33.658 13.929 38.874 L 13.929 51.852 L 0.95 51.852 C -4.266 51.699 -9.659 49.444 -13.049 46.054 C -16.439 42.664 -18.694 37.271 -18.847 32.055 L -18.847 19.076 Z M -11.847 26.076 L -11.847 32.055 C -12 35.84 -10.607 38.596 -8.099 41.104 C -5.591 43.612 -2.835 45.005 0.95 44.852 L 6.929 44.852 L 6.929 38.874 C 7.082 35.089 5.689 32.333 3.18 29.824 C 0.672 27.316 -2.084 25.923 -5.869 26.076 Z" style="fill: rgb(39, 172, 141);"/>
  <line class="cls-1" x1="17.787" y1="55.673" x2="-4.289" y2="33.596" style="fill: none; stroke-miterlimit: 10; stroke-width: 7px;"/>
  <path d="M 15.312 58.148 L -6.764 36.071 L -1.814 31.121 L 20.262 53.198 Z" style="fill: rgb(39, 172, 141);"/>
</svg>